<?xml version="1.0" standalone="no"?>
<!DOCTYPE svg PUBLIC "-//W3C//DTD SVG 20010904//EN"
 "http://www.w3.org/TR/2001/REC-SVG-20010904/DTD/svg10.dtd">
<svg version="1.0" xmlns="http://www.w3.org/2000/svg"
 width="140.000000pt" height="30.000000pt" viewBox="0 0 140.000000 30.000000"
 preserveAspectRatio="xMidYMid meet">

<g transform="translate(0.000000,30.000000) scale(0.100000,-0.100000)"
fill="#000000" stroke="none">
<path d="M400 220 c-34 -29 -34 -29 -10 -29 14 0 20 3 13 6 -8 3 -3 13 15 28
39 35 24 30 -18 -5z"/>
<path d="M489 241 c8 -5 12 -18 8 -30 -3 -12 -1 -21 4 -21 5 0 9 6 9 14 0 8
10 17 23 19 l22 4 -22 2 c-13 0 -23 6 -23 11 0 6 -8 10 -17 10 -14 0 -15 -2
-4 -9z"/>
<path d="M608 220 c-3 -17 0 -29 5 -27 12 4 19 57 7 57 -4 0 -10 -14 -12 -30z"/>
<path d="M701 231 c-1 -17 -5 -22 -18 -17 -15 5 -14 3 2 -9 18 -14 20 -14 23
-1 2 9 1 24 -1 34 -3 12 -5 10 -6 -7z"/>
<path d="M762 220 c0 -19 2 -27 5 -17 2 9 2 25 0 35 -3 9 -5 1 -5 -18z"/>
<path d="M816 235 c4 -8 10 -12 15 -9 11 6 2 24 -11 24 -5 0 -7 -7 -4 -15z"/>
<path d="M878 220 c2 -16 6 -30 8 -30 2 0 4 14 4 30 0 17 -4 30 -8 30 -5 0 -7
-13 -4 -30z"/>
<path d="M934 242 c4 -7 1 -15 -9 -18 -14 -6 -14 -8 2 -20 10 -7 23 -13 28
-13 6 0 2 4 -9 10 -15 9 -16 13 -5 20 12 7 12 10 0 21 -11 10 -12 10 -7 0z"/>
<path d="M1002 220 c0 -19 2 -27 5 -17 2 9 2 25 0 35 -3 9 -5 1 -5 -18z"/>
<path d="M1050 239 c0 -5 5 -7 10 -4 6 3 10 8 10 11 0 2 -4 4 -10 4 -5 0 -10
-5 -10 -11z"/>
<path d="M1182 220 c0 -19 2 -27 5 -17 2 9 2 25 0 35 -3 9 -5 1 -5 -18z"/>
<path d="M1106 203 c-6 -14 -5 -15 5 -6 7 7 10 15 7 18 -3 3 -9 -2 -12 -12z"/>
<path d="M1047 199 c7 -7 15 -10 18 -7 3 3 -2 9 -12 12 -14 6 -15 5 -6 -5z"/>
<path d="M538 193 c7 -3 16 -2 19 1 4 3 -2 6 -13 5 -11 0 -14 -3 -6 -6z"/>
<path d="M51 141 c-14 -4 -26 -12 -27 -19 -1 -7 0 -8 3 -2 2 5 13 10 23 10 10
0 22 5 25 10 3 6 5 10 3 9 -2 -1 -14 -4 -27 -8z"/>
<path d="M170 140 c-9 -6 -10 -10 -3 -10 6 0 15 5 18 10 8 12 4 12 -15 0z"/>
<path d="M425 130 c3 -5 8 -10 11 -10 2 0 4 5 4 10 0 6 -5 10 -11 10 -5 0 -7
-4 -4 -10z"/>
<path d="M586 114 c4 -38 14 -42 14 -6 0 18 -4 32 -9 32 -4 0 -7 -12 -5 -26z"/>
<path d="M203 123 c9 -2 23 -2 30 0 6 3 -1 5 -18 5 -16 0 -22 -2 -12 -5z"/>
<path d="M740 111 c0 -11 3 -22 8 -24 4 -3 7 6 7 19 0 13 -3 24 -7 24 -5 0 -8
-9 -8 -19z"/>
<path d="M118 113 c7 -3 16 -2 19 1 4 3 -2 6 -13 5 -11 0 -14 -3 -6 -6z"/>
<path d="M475 110 c-8 -12 2 -30 17 -30 7 0 7 4 -1 13 -6 8 -8 17 -4 20 3 4 4
7 0 7 -3 0 -9 -4 -12 -10z"/>
<path d="M545 111 c4 -8 2 -17 -6 -22 -9 -6 -10 -9 -2 -9 19 0 27 21 13 33
-10 9 -11 9 -5 -2z"/>
<path d="M630 106 c0 -8 4 -17 9 -21 6 -3 9 4 8 15 -1 23 -17 28 -17 6z"/>
<path d="M687 100 c-3 -13 0 -20 9 -20 8 0 14 9 14 20 0 11 -4 20 -9 20 -5 0
-11 -9 -14 -20z"/>
<path d="M810 100 c0 -11 4 -20 9 -20 5 0 7 9 4 20 -3 11 -7 20 -9 20 -2 0 -4
-9 -4 -20z"/>
<path d="M857 113 c-11 -11 -8 -21 9 -27 14 -5 15 -4 5 8 -9 11 -9 15 1 19 7
3 8 6 2 6 -6 1 -14 -2 -17 -6z"/>
<path d="M925 111 c4 -8 2 -17 -6 -22 -9 -6 -10 -9 -2 -9 19 0 27 21 13 33
-10 9 -11 9 -5 -2z"/>
<path d="M967 100 c7 -25 9 -25 16 0 3 12 0 20 -8 20 -8 0 -11 -8 -8 -20z"/>
<path d="M1020 110 c0 -5 5 -10 11 -10 5 0 7 5 4 10 -3 6 -8 10 -11 10 -2 0
-4 -4 -4 -10z"/>
<path d="M1075 110 c3 -5 11 -10 16 -10 6 0 7 5 4 10 -3 6 -11 10 -16 10 -6 0
-7 -4 -4 -10z"/>
<path d="M433 95 c0 -8 4 -12 9 -9 4 3 8 9 8 15 0 5 -4 9 -8 9 -5 0 -9 -7 -9
-15z"/>
<path d="M85 90 c11 -5 27 -9 35 -9 9 0 8 4 -5 9 -11 5 -27 9 -35 9 -9 0 -8
-4 5 -9z"/>
<path d="M180 96 c0 -2 9 -6 20 -9 11 -3 18 -1 14 4 -5 9 -34 13 -34 5z"/>
<path d="M140 78 c11 -11 100 -36 100 -29 0 5 -12 11 -27 15 -16 3 -39 9 -53
12 -14 4 -23 5 -20 2z"/>
</g>
</svg>
